<svg width="240" height="240" viewBox="0 0 240 240" fill="none" xmlns="http://www.w3.org/2000/svg">
  <path d="M50 160C50 165.523 54.4772 170 60 170C65.5228 170 70 165.523 70 160C70 154.477 65.5228 150 60 150C54.4772 150 50 154.477 50 160Z" fill="white"/>
  <path d="M170 160C170 165.523 174.477 170 180 170C185.523 170 190 165.523 190 160C190 154.477 185.523 150 180 150C174.477 150 170 154.477 170 160Z" fill="white"/>
  <path d="M160 120H130L120 100H80C74.4772 100 70 104.477 70 110V140H170V130C170 124.477 165.523 120 160 120Z" fill="white"/>
  <path d="M170 110L160 100H200L190 110H170Z" fill="white"/>
  <rect x="180" y="110" width="10" height="10" fill="white"/>
  <path d="M70 110L60 90H100L90 110H70Z" fill="white"/>
</svg>
