<svg width="512" height="512" viewBox="0 0 512 512" fill="none" xmlns="http://www.w3.org/2000/svg">
<rect width="512" height="512" fill="#FF6B35"/>
<path d="M416.223 247.564C423.085 233.381 415.016 215.089 409.892 207.884C417.823 217.195 422.479 227.281 423.815 231.16C425.135 233.488 426.377 231.53 426.6 230.384C427.678 224.842 419.1 211.727 415.016 206C422.573 213.537 428.345 221.85 429.719 226.062C432.72 235.261 428.679 242.835 426.6 245.458C421.904 251.998 415.053 257.355 412.899 259.867C404.344 269.621 401.463 276.271 401.092 278.377C398.508 288.131 402.911 294.19 405.436 296C397.505 295.379 393.811 287.687 393.629 283.697C393.183 273.943 401.28 264.522 405.178 260.754C408.836 256.874 413.301 253.605 416.223 247.564Z" fill="#1BDA1B"/>
<path d="M441.511 217.9C443.169 217.9 444.647 218.553 445.945 219.857C447.315 221.088 448 222.682 448 224.638C448 225.29 447.893 225.98 447.677 226.704C447.532 227.356 447.244 228.008 446.812 228.659L424.205 261.18V287.672C424.205 289.556 423.557 291.15 422.26 292.455C421.034 293.686 419.591 294.302 417.932 294.302C416.13 294.302 414.579 293.686 413.282 292.455C412.056 291.15 411.443 289.556 411.443 287.672V264.225C412.277 263.192 413.182 262.112 414.166 260.99L414.18 260.975C414.649 260.427 415.413 259.682 416.442 258.714C417.443 257.773 418.673 256.643 419.966 255.4C422.541 252.922 425.492 249.886 427.922 246.516C430.068 243.809 434.017 236.48 431.853 227.407L436.103 221.16C437.617 218.987 439.42 217.9 441.511 217.9Z" fill="white"/>
<path d="M411.443 261.568V261.562L412.113 260.772C411.884 261.039 411.663 261.306 411.443 261.568Z" fill="white"/>
<path d="M393.922 217.9C395.94 217.9 397.708 218.914 399.222 220.943L415.843 243.995C415.526 244.955 415.15 245.899 414.704 246.821C412.944 250.461 410.649 252.959 408.212 255.358L388.947 229.638C388.226 228.696 387.721 227.791 387.432 226.921C387.144 226.052 387 225.254 387 224.53C387 222.574 387.757 220.979 389.271 219.747C390.785 218.516 392.335 217.9 393.922 217.9Z" fill="white"/>
<path d="M115.306 238.41C117.074 238.41 118.536 238.988 119.692 240.144C120.848 241.3 121.426 242.796 121.426 244.632V287.778C121.426 289.546 120.848 291.042 119.692 292.266C118.536 293.422 117.074 294 115.306 294C113.538 294 112.076 293.422 110.92 292.266C109.764 291.042 109.186 289.546 109.186 287.778V282.78L111.43 283.698C111.43 284.582 110.954 285.67 110.002 286.962C109.05 288.186 107.758 289.41 106.126 290.634C104.494 291.858 102.556 292.912 100.312 293.796C98.136 294.612 95.756 295.02 93.172 295.02C88.48 295.02 84.23 293.83 80.422 291.45C76.614 289.002 73.588 285.67 71.344 281.454C69.168 277.17 68.08 272.274 68.08 266.766C68.08 261.19 69.168 256.294 71.344 252.078C73.588 247.794 76.58 244.462 80.32 242.082C84.06 239.634 88.208 238.41 92.764 238.41C95.688 238.41 98.374 238.852 100.822 239.736C103.27 240.62 105.378 241.742 107.146 243.102C108.982 244.462 110.376 245.856 111.328 247.284C112.348 248.644 112.858 249.8 112.858 250.752L109.186 252.078V244.632C109.186 242.864 109.764 241.402 110.92 240.246C112.076 239.022 113.538 238.41 115.306 238.41ZM94.702 283.8C97.694 283.8 100.312 283.052 102.556 281.556C104.8 280.06 106.534 278.02 107.758 275.436C109.05 272.852 109.696 269.962 109.696 266.766C109.696 263.502 109.05 260.578 107.758 257.994C106.534 255.41 104.8 253.37 102.556 251.874C100.312 250.378 97.694 249.63 94.702 249.63C91.778 249.63 89.194 250.378 86.95 251.874C84.706 253.37 82.938 255.41 81.646 257.994C80.422 260.578 79.81 263.502 79.81 266.766C79.81 269.962 80.422 272.852 81.646 275.436C82.938 278.02 84.706 280.06 86.95 281.556C89.194 283.052 91.778 283.8 94.702 283.8ZM179.331 238.41C181.099 238.41 182.561 238.988 183.717 240.144C184.873 241.3 185.451 242.796 185.451 244.632V287.778C185.451 289.546 184.873 291.042 183.717 292.266C182.561 293.422 181.099 294 179.331 294C177.563 294 176.101 293.422 174.945 292.266C173.789 291.042 173.211 289.546 173.211 287.778V282.78L175.455 283.698C175.455 284.582 174.979 285.67 174.027 286.962C173.075 288.186 171.783 289.41 170.151 290.634C168.519 291.858 166.581 292.912 164.337 293.796C162.161 294.612 159.781 295.02 157.197 295.02C152.505 295.02 148.255 293.83 144.447 291.45C140.639 289.002 137.613 285.67 135.369 281.454C133.193 277.17 132.105 272.274 132.105 266.766C132.105 261.19 133.193 256.294 135.369 252.078C137.613 247.794 140.605 244.462 144.345 242.082C148.085 239.634 152.233 238.41 156.789 238.41C159.713 238.41 162.399 238.852 164.847 239.736C167.295 240.62 169.403 241.742 171.171 243.102C173.007 244.462 174.401 245.856 175.353 247.284C176.373 248.644 176.883 249.8 176.883 250.752L173.211 252.078V244.632C173.211 242.864 173.789 241.402 174.945 240.246C176.101 239.022 177.563 238.41 179.331 238.41ZM158.727 283.8C161.719 283.8 164.337 283.052 166.581 281.556C168.825 280.06 170.559 278.02 171.783 275.436C173.075 272.852 173.721 269.962 173.721 266.766C173.721 263.502 173.075 260.578 171.783 257.994C170.559 255.41 168.825 253.37 166.581 251.874C164.337 250.378 161.719 249.63 158.727 249.63C155.803 249.63 153.219 250.378 150.975 251.874C148.731 253.37 146.963 255.41 145.671 257.994C144.447 260.578 143.835 263.502 143.835 266.766C143.835 269.962 144.447 272.852 145.671 275.436C146.963 278.02 148.731 280.06 150.975 281.556C153.219 283.052 155.803 283.8 158.727 283.8ZM226.346 238.41C231.242 238.41 234.948 239.464 237.464 241.572C240.048 243.68 241.816 246.502 242.768 250.038C243.72 253.506 244.196 257.382 244.196 261.666V287.778C244.196 289.546 243.618 291.042 242.462 292.266C241.306 293.422 239.844 294 238.076 294C236.308 294 234.846 293.422 233.69 292.266C232.534 291.042 231.956 289.546 231.956 287.778V261.666C231.956 259.422 231.684 257.416 231.14 255.648C230.596 253.812 229.61 252.35 228.182 251.262C226.754 250.174 224.714 249.63 222.062 249.63C219.478 249.63 217.268 250.174 215.432 251.262C213.596 252.35 212.202 253.812 211.25 255.648C210.366 257.416 209.924 259.422 209.924 261.666V287.778C209.924 289.546 209.346 291.042 208.19 292.266C207.034 293.422 205.572 294 203.804 294C202.036 294 200.574 293.422 199.418 292.266C198.262 291.042 197.684 289.546 197.684 287.778V224.742C197.684 222.974 198.262 221.512 199.418 220.356C200.574 219.132 202.036 218.52 203.804 218.52C205.572 218.52 207.034 219.132 208.19 220.356C209.346 221.512 209.924 222.974 209.924 224.742V250.038L208.394 249.732C209.006 248.576 209.856 247.352 210.944 246.06C212.032 244.7 213.358 243.442 214.922 242.286C216.486 241.13 218.22 240.212 220.124 239.532C222.028 238.784 224.102 238.41 226.346 238.41ZM301.105 238.41C302.873 238.41 304.335 238.988 305.491 240.144C306.647 241.3 307.225 242.796 307.225 244.632V287.778C307.225 289.546 306.647 291.042 305.491 292.266C304.335 293.422 302.873 294 301.105 294C299.337 294 297.875 293.422 296.719 292.266C295.563 291.042 294.985 289.546 294.985 287.778V282.78L297.229 283.698C297.229 284.582 296.753 285.67 295.801 286.962C294.849 288.186 293.557 289.41 291.925 290.634C290.293 291.858 288.355 292.912 286.111 293.796C283.935 294.612 281.555 295.02 278.971 295.02C274.279 295.02 270.029 293.83 266.221 291.45C262.413 289.002 259.387 285.67 257.143 281.454C254.967 277.17 253.879 272.274 253.879 266.766C253.879 261.19 254.967 256.294 257.143 252.078C259.387 247.794 262.379 244.462 266.119 242.082C269.859 239.634 274.007 238.41 278.563 238.41C281.487 238.41 284.173 238.852 286.621 239.736C289.069 240.62 291.177 241.742 292.945 243.102C294.781 244.462 296.175 245.856 297.127 247.284C298.147 248.644 298.657 249.8 298.657 250.752L294.985 252.078V244.632C294.985 242.864 295.563 241.402 296.719 240.246C297.875 239.022 299.337 238.41 301.105 238.41ZM280.501 283.8C283.493 283.8 286.111 283.052 288.355 281.556C290.599 280.06 292.333 278.02 293.557 275.436C294.849 272.852 295.495 269.962 295.495 266.766C295.495 263.502 294.849 260.578 293.557 257.994C292.333 255.41 290.599 253.37 288.355 251.874C286.111 250.378 283.493 249.63 280.501 249.63C277.577 249.63 274.993 250.378 272.749 251.874C270.505 253.37 268.737 255.41 267.445 257.994C266.221 260.578 265.609 263.502 265.609 266.766C265.609 269.962 266.221 272.852 267.445 275.436C268.737 278.02 270.505 280.06 272.749 281.556C274.993 283.052 277.577 283.8 280.501 283.8ZM325.578 294C323.81 294 322.348 293.422 321.192 292.266C320.036 291.042 319.458 289.546 319.458 287.778V245.652C319.458 243.884 320.036 242.422 321.192 241.266C322.348 240.042 323.81 239.43 325.578 239.43C327.346 239.43 328.808 240.042 329.964 241.266C331.12 242.422 331.698 243.884 331.698 245.652V255.24L330.984 248.406C331.732 246.774 332.684 245.346 333.84 244.122C335.064 242.83 336.424 241.776 337.92 240.96C339.416 240.076 341.014 239.43 342.714 239.022C344.414 238.614 346.114 238.41 347.814 238.41C349.854 238.41 351.554 238.988 352.914 240.144C354.342 241.3 355.056 242.66 355.056 244.224C355.056 246.468 354.478 248.1 353.322 249.12C352.166 250.072 350.908 250.548 349.548 250.548C348.256 250.548 347.066 250.31 345.978 249.834C344.958 249.358 343.768 249.12 342.408 249.12C341.184 249.12 339.926 249.426 338.634 250.038C337.41 250.582 336.254 251.466 335.166 252.69C334.146 253.914 333.296 255.444 332.616 257.28C332.004 259.048 331.698 261.156 331.698 263.604V287.778C331.698 289.546 331.12 291.042 329.964 292.266C328.808 293.422 327.346 294 325.578 294ZM375.925 287.778C375.925 289.546 375.313 291.042 374.089 292.266C372.933 293.422 371.471 294 369.703 294C368.003 294 366.575 293.422 365.419 292.266C364.263 291.042 363.685 289.546 363.685 287.778V224.742C363.685 222.974 364.263 221.512 365.419 220.356C366.643 219.132 368.139 218.52 369.907 218.52C371.675 218.52 373.103 219.132 374.191 220.356C375.347 221.512 375.925 222.974 375.925 224.742V287.778Z" fill="white"/>
<path d="M201.772 341V311.6H211.39C219.496 311.6 226.468 316.43 226.468 326.3C226.468 336.17 219.496 341 211.39 341H201.772ZM207.4 336.044H210.886C215.926 336.044 220.672 333.482 220.672 326.3C220.672 319.118 215.926 316.514 210.886 316.514H207.4V336.044ZM239.129 341V311.6H258.785V316.514H244.841V322.982H256.013V327.938H244.841V336.044H259.247V341H239.129ZM271.892 341V311.6H277.604V336.044H291.254V341H271.892ZM302.933 341V311.6H308.645V341H302.933ZM330.803 341L320.093 311.6H325.931L333.533 334.196L341.219 311.6H347.015L336.305 341H330.803ZM358.493 341V311.6H378.149V316.514H364.205V322.982H375.377V327.938H364.205V336.044H378.611V341H358.493ZM415.28 341H408.644L401.63 328.946H397.01V341H391.298L391.256 311.6H402.596C408.35 311.6 412.088 315.002 412.088 320.294C412.088 323.612 410.366 326.426 407.468 327.854L415.28 341ZM397.01 316.514V324.032H401.714C404.654 324.032 406.334 322.646 406.334 320.294C406.334 317.942 404.654 316.514 401.714 316.514H397.01ZM431.698 341V328.82L421.618 311.6H427.75L434.554 323.444L441.4 311.6H447.532L437.41 328.82V341H431.698Z" fill="white"/>
</svg>
